<svg width="18" height="21" viewBox="0 0 18 21" fill="none" xmlns="http://www.w3.org/2000/svg">
<path d="M5.625 2.25276C5.32663 2.25276 5.04048 2.37128 4.8295 2.58226C4.61853 2.79324 4.5 3.07939 4.5 3.37776C4.5 3.67613 4.61853 3.96227 4.8295 4.17325C5.04048 4.38423 5.32663 4.50276 5.625 4.50276C5.92337 4.50276 6.20952 4.38423 6.4205 4.17325C6.63147 3.96227 6.75 3.67613 6.75 3.37776C6.75 3.07939 6.63147 2.79324 6.4205 2.58226C6.20952 2.37128 5.92337 2.25276 5.625 2.25276ZM2.44125 2.25276C2.67368 1.59403 3.10471 1.02362 3.67492 0.620145C4.24514 0.21667 4.92647 0 5.625 0C6.32353 0 7.00486 0.21667 7.57508 0.620145C8.14529 1.02362 8.57632 1.59403 8.80875 2.25276H16.875C17.1734 2.25276 17.4595 2.37128 17.6705 2.58226C17.8815 2.79324 18 3.07939 18 3.37776C18 3.67613 17.8815 3.96227 17.6705 4.17325C17.4595 4.38423 17.1734 4.50276 16.875 4.50276H8.80875C8.57632 5.16148 8.14529 5.73189 7.57508 6.13537C7.00486 6.53884 6.32353 6.75551 5.625 6.75551C4.92647 6.75551 4.24514 6.53884 3.67492 6.13537C3.10471 5.73189 2.67368 5.16148 2.44125 4.50276H1.125C0.826631 4.50276 0.540484 4.38423 0.329505 4.17325C0.118527 3.96227 0 3.67613 0 3.37776C0 3.07939 0.118527 2.79324 0.329505 2.58226C0.540484 2.37128 0.826631 2.25276 1.125 2.25276H2.44125ZM12.375 9.00276C12.0766 9.00276 11.7905 9.12128 11.5795 9.33226C11.3685 9.54324 11.25 9.82939 11.25 10.1278C11.25 10.4261 11.3685 10.7123 11.5795 10.9233C11.7905 11.1342 12.0766 11.2528 12.375 11.2528C12.6734 11.2528 12.9595 11.1342 13.1705 10.9233C13.3815 10.7123 13.5 10.4261 13.5 10.1278C13.5 9.82939 13.3815 9.54324 13.1705 9.33226C12.9595 9.12128 12.6734 9.00276 12.375 9.00276ZM9.19125 9.00276C9.42368 8.34403 9.85471 7.77362 10.4249 7.37014C10.9951 6.96667 11.6765 6.75 12.375 6.75C13.0735 6.75 13.7549 6.96667 14.3251 7.37014C14.8953 7.77362 15.3263 8.34403 15.5588 9.00276H16.875C17.1734 9.00276 17.4595 9.12128 17.6705 9.33226C17.8815 9.54324 18 9.82939 18 10.1278C18 10.4261 17.8815 10.7123 17.6705 10.9233C17.4595 11.1342 17.1734 11.2528 16.875 11.2528H15.5588C15.3263 11.9115 14.8953 12.4819 14.3251 12.8854C13.7549 13.2888 13.0735 13.5055 12.375 13.5055C11.6765 13.5055 10.9951 13.2888 10.4249 12.8854C9.85471 12.4819 9.42368 11.9115 9.19125 11.2528H1.125C0.826631 11.2528 0.540484 11.1342 0.329505 10.9233C0.118527 10.7123 0 10.4261 0 10.1278C0 9.82939 0.118527 9.54324 0.329505 9.33226C0.540484 9.12128 0.826631 9.00276 1.125 9.00276H9.19125ZM5.625 15.7528C5.32663 15.7528 5.04048 15.8713 4.8295 16.0823C4.61853 16.2932 4.5 16.5794 4.5 16.8778C4.5 17.1761 4.61853 17.4623 4.8295 17.6733C5.04048 17.8842 5.32663 18.0028 5.625 18.0028C5.92337 18.0028 6.20952 17.8842 6.4205 17.6733C6.63147 17.4623 6.75 17.1761 6.75 16.8778C6.75 16.5794 6.63147 16.2932 6.4205 16.0823C6.20952 15.8713 5.92337 15.7528 5.625 15.7528ZM2.44125 15.7528C2.67368 15.094 3.10471 14.5236 3.67492 14.1201C4.24514 13.7167 4.92647 13.5 5.625 13.5C6.32353 13.5 7.00486 13.7167 7.57508 14.1201C8.14529 14.5236 8.57632 15.094 8.80875 15.7528H16.875C17.1734 15.7528 17.4595 15.8713 17.6705 16.0823C17.8815 16.2932 18 16.5794 18 16.8778C18 17.1761 17.8815 17.4623 17.6705 17.6733C17.4595 17.8842 17.1734 18.0028 16.875 18.0028H8.80875C8.57632 18.6615 8.14529 19.2319 7.57508 19.6354C7.00486 20.0388 6.32353 20.2555 5.625 20.2555C4.92647 20.2555 4.24514 20.0388 3.67492 19.6354C3.10471 19.2319 2.67368 18.6615 2.44125 18.0028H1.125C0.826631 18.0028 0.540484 17.8842 0.329505 17.6733C0.118527 17.4623 0 17.1761 0 16.8778C0 16.5794 0.118527 16.2932 0.329505 16.0823C0.540484 15.8713 0.826631 15.7528 1.125 15.7528H2.44125Z" fill="#0D0D0D"/>
</svg>
