<svg width="179" height="114" viewBox="0 0 179 114" fill="none" xmlns="http://www.w3.org/2000/svg">
<path fill-rule="evenodd" clip-rule="evenodd" d="M60.678 1.25994C79.6595 4.81507 89.5863 23.1388 106.593 31.3809C124.111 39.871 148.104 37.1156 161.561 50.152C175.442 63.5987 179.049 83.3396 179 101.525C178.95 119.688 172.807 137.703 161.284 152.756C150.146 167.308 133.448 177.792 115.22 184.848C98.1125 191.47 78.8661 195.463 60.678 191.698C43.7048 188.185 35.2004 170.973 19.1533 164.961C-0.163216 157.726 -24.8794 164.952 -41.3487 153.48C-59.0091 141.177 -73.2541 121.338 -71.9124 101.525C-70.5684 81.6777 -47.7869 69.1247 -34.5468 53.0334C-22.7323 38.6746 -15.1914 21.0882 1.93161 11.7785C19.2359 2.37019 40.7935 -2.4643 60.678 1.25994Z" fill="#FD830D"/>
<path fill-rule="evenodd" clip-rule="evenodd" d="M60.2941 5.92807C78.2606 9.29309 87.6566 26.637 103.754 34.4383C120.335 42.4744 143.045 39.8663 155.782 52.2056C168.921 64.9332 172.335 83.6185 172.288 100.831C172.242 118.023 166.427 135.074 155.52 149.323C144.977 163.096 129.173 173.02 111.919 179.699C95.7268 185.966 77.5096 189.746 60.2941 186.183C44.2286 182.857 36.179 166.565 20.99 160.876C2.70647 154.027 -20.688 160.867 -36.2766 150.008C-52.9926 138.363 -66.4758 119.585 -65.2058 100.831C-63.9337 82.0455 -42.3705 70.1637 -29.8384 54.9329C-18.6557 41.342 -11.5181 24.696 4.68927 15.8841C21.0682 6.97894 41.473 2.40298 60.2941 5.92807Z" fill="#E9F4FF"/>
</svg>
