<svg width="20" height="18" viewBox="0 0 20 18" fill="none" xmlns="http://www.w3.org/2000/svg">
<path fill-rule="evenodd" clip-rule="evenodd" d="M9.95957 0.401173C10.1883 0.513039 10.3333 0.745426 10.3333 1.00004V17C10.3333 17.2547 10.1883 17.4871 9.95957 17.599C9.73084 17.7108 9.45836 17.6826 9.25737 17.5263L4.29507 13.6667H2C0.895428 13.6667 0 12.7712 0 11.6667V6.33337C0 5.22881 0.895431 4.33337 2 4.33337H4.29507L9.25737 0.473813C9.45836 0.317486 9.73084 0.289299 9.95957 0.401173ZM9 2.36313L4.93311 5.52628C4.81608 5.61729 4.67207 5.6667 4.52381 5.6667H2C1.63181 5.6667 1.33333 5.96518 1.33333 6.33337V11.6667C1.33333 12.0349 1.63181 12.3334 2 12.3334H4.52381C4.67207 12.3334 4.81608 12.3828 4.93311 12.4738L9 15.637V2.36313ZM13.7045 4.13076C13.9497 3.9676 14.2808 4.03413 14.444 4.27936C16.3411 7.13068 16.3411 10.8694 14.444 13.7207C14.2808 13.9659 13.9497 14.0324 13.7045 13.8692C13.4592 13.7062 13.3927 13.3751 13.5559 13.1298C15.2148 10.6364 15.2148 7.36362 13.5559 4.87022C13.3927 4.62498 13.4592 4.29392 13.7045 4.13076ZM16.9047 0.907292C16.7141 0.682573 16.3776 0.654759 16.1529 0.845186C15.9283 1.0356 15.9004 1.37215 16.0908 1.59687C19.7031 5.85988 19.7031 12.1402 16.0908 16.4032C15.9004 16.6279 15.9283 16.9644 16.1529 17.1548C16.3776 17.3454 16.7141 17.3175 16.9047 17.0928C20.8541 12.4319 20.8541 5.5682 16.9047 0.907292Z" fill="#4C51C6"/>
</svg>
