<svg width="21" height="20" viewBox="0 0 21 20" fill="none" xmlns="http://www.w3.org/2000/svg">
<g clip-path="url(#clip0_236_2)">
<path fill-rule="evenodd" clip-rule="evenodd" d="M10.1087 1.40111C10.3408 1.51298 10.488 1.74536 10.488 1.99998V18C10.488 18.2546 10.3408 18.487 10.1087 18.5989C9.87651 18.7108 9.59995 18.6825 9.39596 18.5262L4.35936 14.6666H2.02994C0.908832 14.6666 0 13.7712 0 12.6666V7.33331C0 6.22875 0.908835 5.33331 2.02994 5.33331H4.35936L9.39596 1.47375C9.59995 1.31743 9.87651 1.28924 10.1087 1.40111ZM9.13473 3.36307L5.00695 6.52622C4.88818 6.61723 4.74201 6.66664 4.59153 6.66664H2.02994C1.65624 6.66664 1.35329 6.96512 1.35329 7.33331V12.6666C1.35329 13.0348 1.65624 13.3333 2.02994 13.3333H4.59153C4.74201 13.3333 4.88818 13.3828 5.00695 13.4737L9.13473 16.6369V3.36307ZM13.9097 5.1307C14.1586 4.96754 14.4946 5.03407 14.6602 5.2793C16.5857 8.13062 16.5857 11.8693 14.6602 14.7206C14.4946 14.9658 14.1586 15.0324 13.9097 14.8692C13.6607 14.7061 13.5932 14.375 13.7588 14.1297C15.4426 11.6363 15.4426 8.36356 13.7588 5.87016C13.5932 5.62492 13.6607 5.29386 13.9097 5.1307ZM17.1577 1.90723C16.9643 1.68251 16.6228 1.6547 16.3947 1.84512C16.1667 2.03554 16.1384 2.37208 16.3317 2.5968C19.998 6.85982 19.998 13.1401 16.3317 17.4032C16.1384 17.6278 16.1667 17.9644 16.3947 18.1548C16.6228 18.3453 16.9643 18.3174 17.1577 18.0928C21.1663 13.4318 21.1663 6.56814 17.1577 1.90723Z" fill="white"/>
</g>
<defs>
<clipPath id="clip0_236_2">
<rect width="20.2994" height="20" fill="white"/>
</clipPath>
</defs>
</svg>
