<svg width="33" height="24" viewBox="0 0 33 24" fill="none" xmlns="http://www.w3.org/2000/svg">
<path d="M2.33333 0H14C14.6188 0 15.2123 0.245833 15.6499 0.683417C16.0875 1.121 16.3333 1.71449 16.3333 2.33333C16.3333 2.95217 16.0875 3.54566 15.6499 3.98325C15.2123 4.42083 14.6188 4.66667 14 4.66667H2.33333C1.71449 4.66667 1.121 4.42083 0.683418 3.98325C0.245833 3.54566 0 2.95217 0 2.33333C0 1.71449 0.245833 1.121 0.683418 0.683417C1.121 0.245833 1.71449 0 2.33333 0ZM18.6667 18.6667H30.3333C30.9522 18.6667 31.5457 18.9125 31.9833 19.3501C32.4208 19.7877 32.6667 20.3812 32.6667 21C32.6667 21.6188 32.4208 22.2123 31.9833 22.6499C31.5457 23.0875 30.9522 23.3333 30.3333 23.3333H18.6667C18.0478 23.3333 17.4543 23.0875 17.0168 22.6499C16.5792 22.2123 16.3333 21.6188 16.3333 21C16.3333 20.3812 16.5792 19.7877 17.0168 19.3501C17.4543 18.9125 18.0478 18.6667 18.6667 18.6667ZM2.33333 9.33333H30.3333C30.9522 9.33333 31.5457 9.57916 31.9833 10.0167C32.4208 10.4543 32.6667 11.0478 32.6667 11.6667C32.6667 12.2855 32.4208 12.879 31.9833 13.3166C31.5457 13.7542 30.9522 14 30.3333 14H2.33333C1.71449 14 1.121 13.7542 0.683418 13.3166C0.245833 12.879 0 12.2855 0 11.6667C0 11.0478 0.245833 10.4543 0.683418 10.0167C1.121 9.57916 1.71449 9.33333 2.33333 9.33333Z" fill="#4C51C6"/>
</svg>
